<svg id="Layer_1_1_" enable-background="new 0 0 256 256" height="512" viewBox="0 0 256 256" width="512" xmlns="http://www.w3.org/2000/svg"><path d="m8.584 252.099h42.744c6.239 0 11.313-4.884 11.553-11.117l.107-2.782c.058-1.473-.164-2.923-.657-4.312l-5.12-14.43-1.945-102.773c10.52-9.712 25.541-24.438 35.46-34.25 5.437-5.376 12.636-8.578 20.274-9.015l.313-.018c3.965-.227 7.837-1.111 11.508-2.631 6.963-2.881 12.932-8.025 16.808-14.486l4.811-8.018c3.213.497 12.098 2.398 17.639 8.729 7.016 8.019 31.561 32.852 35.011 36.338.395 1.543.886 3.062 1.472 4.547l2.436 6.162c-3.264 3.531-5.867 7.711-7.615 12.269-1.352-.313-2.722-.484-4.096-.484-10.167 0-18.438 8.271-18.438 18.439 0 10.167 8.271 18.438 18.438 18.438 3.693 0 7.295-1.126 10.333-3.186 3.108 3.005 6.977 5.344 11.489 6.755 1.167.365 2.294.668 3.393.925l-.666 66.244-13.035.931c-.104.008-.208.023-.31.047l-16.222 3.768c-.115.026-.228.063-.336.11-2.004.858-3.133 3.031-2.683 5.166.407 1.926 1.993 3.376 3.947 3.61l14.711 1.756-10.051 3.843c-1.979.757-3.31 2.688-3.31 4.808 0 2.838 2.309 5.146 5.146 5.146h35.571c3.656 0 7.093-1.424 9.678-4.009l.555-.555c2.211-2.211 3.608-5.142 3.935-8.253l3.764-35.962c.396-3.784.597-7.634.597-11.444v-29.955c0-.151-.018-.302-.051-.45l-3.979-17.243c1.886-3.566 3.389-7.532 4.513-10.72l6.288-7.367c.853-1 1.145-2.352.779-3.617-.375-1.302-1.381-2.323-2.69-2.732l-2.258-.741c.113-.601.527-2.134.896-3.504 2.548-9.441 3.512-14.333 2.096-16.594-.543-.866-2.048-2.989-4.297-3.981-.647-.286-1.378-.514-2.234-.696-.645-.137-4.301-.335-8.035-.508l-7.595-28.729.706-11.46c.319-5.181-.844-10.316-3.364-14.853-3.063-5.513-7.986-9.812-13.86-12.104l-13.175-5.142-5.078-3.109c-13.92-8.525-29.906-13.03-46.23-13.03h-10.671v.001c-.131 0-.262.012-.393.038-.66.132-16.445 3.362-40.293 14.491-18.119 8.456-50.459 44.622-68.123 65.429-5.102 6.009-8.418 13.315-9.589 21.129-.68 4.526-.623 9.109.169 13.62l5.582 31.796 5.082 64.652-22.851 6.645c-.096.028-.189.063-.279.105-1.85.854-3.044 2.72-3.044 4.756 0 2.889 2.351 5.239 5.239 5.239h14.183l-16.915 7.122c-2.168.912-3.569 3.021-3.569 5.374 0 3.215 2.616 5.832 5.831 5.832zm166.265-117.83c0-7.962 6.478-14.439 14.438-14.439.954 0 1.907.11 2.853.305-2.596 9.79-.629 19.337 4.78 26.369-2.281 1.424-4.924 2.204-7.634 2.204-7.96-.001-14.437-6.479-14.437-14.439zm21.544-14.448c1.33-4.259 3.479-8.208 6.26-11.594l18.131 45.861c-2.567-.127-5.406-.669-8.481-1.63-13.562-4.239-20.402-18.27-15.91-32.637zm-11.228 112.821c-.05-.236.051-.477.244-.609l15.834-3.678 14.717-1.051c1.039-.074 1.847-.934 1.857-1.975l.678-67.417c1.164.138 2.293.213 3.388.213.087 0 .169-.009.256-.01l.002 12.4 3.097 63.977-15.03 1.542-24.535-2.928c-.251-.031-.456-.218-.508-.464zm56.629-40.235c0 3.672-.193 7.382-.575 11.028l-3.764 35.961c-.23 2.202-1.22 4.277-2.784 5.842l-.555.555c-1.83 1.829-4.262 2.837-6.85 2.837h-35.571c-.632 0-1.146-.515-1.146-1.146 0-.472.296-.902.737-1.071l15.791-6.037 20.454-2.099c1.058-.108 1.845-1.024 1.794-2.086l-3.186-65.772v-13.28c0-.252-.048-.501-.14-.735l-23.717-59.994c-2.086-5.274-2.831-11.038-2.155-16.668.277-2.313 1.253-4.447 2.822-6.174l.254-.28c3.706-4.076 9.742-4.847 14.353-1.832 2.42 1.582 4.111 4.006 4.762 6.825l19.477 84.396v29.73zm3.683-93.249c.844.372 1.811 1.31 2.483 2.373.653 1.709-1.658 10.276-2.528 13.501-.906 3.357-1.097 4.14-1.054 4.799.11 1.686 1.224 3.1 2.836 3.604l2.309.636-6.53 7.651c-.16.188-.284.404-.366.638-.641 1.828-1.417 3.949-2.317 6.09l-9.324-40.405c6.738.274 12.36.562 13.04.669.582.125 1.057.27 1.451.444zm-12.84-5.047c-.975-.041-1.859-.077-2.585-.105l-2.033-8.811.427-6.936zm-35.039-68.598c.101.062.207.114.316.157l13.341 5.206c5.009 1.954 9.206 5.619 11.818 10.32 2.148 3.867 3.14 8.246 2.868 12.663l-1.21 19.641c-1.183-2.16-2.877-4.013-4.987-5.392-6.267-4.098-14.468-3.048-19.503 2.49l-.255.281c-2.13 2.344-3.455 5.243-3.831 8.386-.289 2.41-.341 4.843-.169 7.258-8.124-8.247-25.354-25.824-30.899-32.162-2.312-2.642-5.072-4.606-7.833-6.071l6.438-36.983c10.107 1.88 19.828 5.587 28.675 11.003zm-37.852-14.854-6.252 35.914c-3.451-1.342-6.556-1.971-8.347-2.248l-5.264-34.455h8.342c3.868 0 7.717.266 11.521.789zm-136.635 96.893c1.062-7.077 4.063-13.693 8.683-19.134 14.052-16.551 48.685-55.955 66.766-64.393 18.531-8.648 32.341-12.486 37.343-13.721l5.408 35.401-5.112 8.521c-3.438 5.73-8.732 10.294-14.907 12.85-3.256 1.347-6.69 2.132-10.21 2.333l-.313.018c-8.609.492-16.727 4.102-22.855 10.164-24.312 24.048-40.908 39.713-45.535 42.979l2.307 3.268c1.435-1.013 3.752-2.974 6.648-5.569l.219 11.545c-11.102 3.484-22.979-.145-26.434-1.372l-1.853-10.554c-.718-4.086-.77-8.237-.155-12.336zm-14.056 122.219c-.684 0-1.239-.556-1.239-1.239 0-.442.239-.852.618-1.072l24.235-7.047c.91-.266 1.51-1.133 1.436-2.077l-1.931-24.572 4.007 22.823-2.876 12.946-.683.287v-.049zm-1.181 14.81 27.935-11.762c.597-.252 1.035-.777 1.176-1.41l3.187-14.343c.058-.256.063-.521.018-.779l-14.284-81.364c3.375 1.038 8.978 2.385 15.338 2.385 3.329 0 6.862-.381 10.388-1.357l1.588 83.907c.005.215.043.428.115.631l5.229 14.737c.322.907.468 1.855.431 2.818l-.107 2.782c-.157 4.077-3.477 7.271-7.557 7.271h-42.747c-1.01 0-1.831-.821-1.831-1.831 0-.737.439-1.399 1.121-1.685z"/></svg>