<svg id="Layer_1_1_" enable-background="new 0 0 256 256" height="512" viewBox="0 0 256 256" width="512" xmlns="http://www.w3.org/2000/svg"><path d="m18.162 253h7.609c.261 0 .522-.021.783-.065l4.284-.714c1.608-.268 2.952-1.323 3.595-2.822l2.062-4.812 49.182-17.706c.035-.013.07-.026.104-.041l32.991-13.997 30.678-12.842c8.317-3.481 16.242-7.919 23.555-13.191l21.544-15.532 5.443 33.828-.839 15.938c-1.994-.464-4.123.096-5.618 1.592-.916.915-1.521 2.125-1.705 3.408l-1.705 11.938-6.759 5.915c-.868.76-1.366 1.857-1.366 3.01v1.252c0 2.064 1.611 3.815 3.668 3.986l9.446.787c.11.009.219.014.329.014.818 0 1.623-.251 2.296-.723l5.271-3.69c.611.805 1.272 1.576 1.994 2.299 2.042 2.042 4.757 3.167 7.645 3.167 2.651 0 5.202-.97 7.183-2.731 4.522-4.02 7.608-9.511 8.69-15.462l.445-2.449c.04-.22 4.037-22.221 7.005-40.029 2.829-16.974 2.159-26.796 1.231-40.391l-.208-3.07c-1.016-15.237-6.136-31.62-11.086-47.464-1.816-5.811-6.073-14.086-12.652-24.597-8.733-13.95-19.709-26.417-32.625-37.053-12.238-10.078-25.869-18.18-40.512-24.08-5.75-2.317-10.611-4.187-14.448-5.557-14.009-5.003-52.183-5.114-54.606-5.116l-31.38-2.071c-.064-.004-.127-.005-.191-.003-2.327.068-4.422 1.495-5.339 3.635-.727 1.697-.64 3.602.24 5.225s2.428 2.736 4.248 3.052l13.822 2.404c-.892 1.002-1.29 2.34-1.075 3.697.251 1.586 1.291 2.889 2.782 3.485 1.238.495 2.623.42 3.801-.208l13.308-7.098 24.2 5.584c.768.177 1.554.321 2.337.428l20.516 2.798 22.828 13.363c-2.688-.783-5.934-.801-7.824-.722l-2.312-4.197c-.256-.465-.686-.809-1.196-.956-.509-.15-1.058-.086-1.521.169l-6.599 3.635c-1.617.413-10.254 2.646-14.993 4.418-4.582 1.713-8.897 6.366-10.262 11.062-1.981 6.817-1.082 14.636 2.265 20.32-4.091 3.789-5.248 9.878-2.522 14.662 2.219 3.895 6.296 6.081 10.487 6.08 2.02 0 4.066-.508 5.942-1.577 3.375-1.923 5.68-4.954 6.371-8.224.108.002.217.01.324.01 1.521 0 3.008-.162 4.415-.503 5.965-1.446 13.345-4.095 17.855-8.818l.338 1.331-2.786 10.216-7.849 12.754c-.081.131-.146.271-.194.416l-12.903 38.709-12.821 17.752c-.027.038-.053.077-.078.116l-17.84 28.745-21.54 18.73c-1.301 1.131-1.899 2.884-1.561 4.574.133.663.403 1.275.779 1.813l-34.166 20.478c-.077.046-.151.098-.221.154l-15 12c-.161.128-.3.281-.415.452l-1.137 1.705c-.976 1.464-1.066 3.338-.235 4.89.83 1.552 2.439 2.515 4.198 2.515zm177.283-4.053-9.445-.787v-1.252l7.317-6.402c.36-.315.595-.749.663-1.223l1.81-12.671c.062-.432.265-.838.573-1.146.617-.617 1.557-.771 2.337-.379l.234.117-.454 8.626c-.208 3.95.641 7.85 2.399 11.314zm37.768-95.737c.909 13.323 1.566 22.949-1.186 39.461-2.963 17.779-6.955 39.751-6.995 39.971l-.445 2.449c-.923 5.077-3.555 9.76-7.412 13.189-1.248 1.109-2.855 1.72-4.525 1.72-1.819 0-3.53-.708-4.817-1.995-3.679-3.679-5.632-8.77-5.359-13.965l1.523-28.935c.008-.141 0-.283-.022-.423l-5.796-36.02 6.99-5.04-2.339-3.245-32.165 23.188c-7.067 5.095-14.724 9.383-22.76 12.747l-30.687 12.846-3.108 1.318-12.798-13.427 9.5-4.222c.194-.086.373-.203.531-.346l26.038-23.597c3.888-3.524 8.058-6.81 12.394-9.766l9.903-6.753c3.831-2.611 7.008-6.153 9.189-10.244l.611-1.146c.643-1.205 1.178-2.46 1.64-3.739 4.001.748 14.21 2.449 24.348 2.449 3.487 0 6.968-.202 10.181-.713 9.582-1.524 19.364-7.217 23.787-10.062 1.779 7.244 3.113 14.382 3.569 21.22zm-72.272-43.964c3.997 3.712 6.692 8.719 7.588 14.1.894 5.36-.023 10.954-2.581 15.75l-.611 1.146c-1.878 3.522-4.615 6.573-7.913 8.821l-9.904 6.753c-4.487 3.059-8.803 6.459-12.827 10.106l-25.8 23.381-10.646 4.731 1.316-1.786 24.95-28.942c.07-.082.134-.168.19-.261l16.922-27.61c1.43-2.333 2.699-4.791 3.773-7.306l10.188-23.854zm11.566 13.699c2.346.213 5.976.463 10.175.463 5.762 0 12.574-.47 18.528-2.149 9.963-2.81 19.278-7.425 23.382-9.597 1.34 4.382 2.634 8.778 3.796 13.149-3.363 2.237-13.694 8.675-23.369 10.214-11.526 1.833-27.283-.656-32.804-1.657.72-3.418.837-6.957.292-10.423zm49.584-19.348c.433 1.385.866 2.776 1.299 4.168-3.518 1.884-13.181 6.799-23.266 9.644-10.484 2.956-24.378 1.852-28.595 1.417-1.495-4.755-4.198-9.106-7.865-12.512l-20.415-18.956 2.12-7.771c5.547 1.426 11.519-.725 14.845-5.586l.832-1.216c3.905-5.707 2.865-13.432-2.156-18.052l2.111-3.513 31.142 5.786c6.657 7.07 12.596 14.729 17.726 22.923 6.396 10.22 10.508 18.183 12.222 23.668zm-74.177-41.472c.153-.894.321-2.08.444-3.431l7.404-1.372c3.935 3.245 4.858 8.998 1.981 13.203l-.832 1.216c-2.5 3.653-7.101 5.15-11.226 3.767l-1.082-4.261c1.427-2.881 2.769-5.958 3.311-9.122zm-28.644-39.106-20.911-2.852c-.663-.091-1.329-.213-1.979-.363l-24.93-5.753c-.47-.109-.965-.043-1.391.184l-13.968 7.45c-.134.072-.291.081-.433.023-.224-.089-.295-.265-.316-.396s-.007-.321.179-.475l2.761-2.301c.599-.499.853-1.3.652-2.053s-.822-1.32-1.589-1.454l-18.014-3.133c-.607-.106-1.123-.477-1.417-1.018-.293-.542-.323-1.176-.08-1.743.295-.689.958-1.157 1.702-1.208l31.334 2.068c.042.004.086.005.13.005.396 0 39.813.057 53.327 4.883 3.788 1.353 8.598 3.203 14.298 5.5 14.264 5.748 27.542 13.64 39.464 23.458 3.178 2.617 6.233 5.349 9.165 8.188l-26.546-4.932-40.698-23.823c-.227-.133-.479-.22-.74-.255zm37.973 26.685-2.216 3.688-6.506 1.205c-.058-4.214-.894-8.948-3.744-12.191zm-46.595 40.005c-3.854 2.196-8.777.847-10.974-3.008-1.729-3.035-1.051-6.896 1.455-9.453 3.44 3.677 8.612 6.325 13.846 7.305-.561 2.005-2.103 3.889-4.327 5.156zm12.148-9.129c-6.773 1.644-16.155-1.959-20.071-7.709-3.268-4.798-4.221-11.885-2.428-18.055 1.007-3.464 4.442-7.167 7.822-8.432.126-.047.258-.095.39-.143 1.515 5.81 6.773 21.815 20.633 32.405-1.923.728-4.044 1.376-6.346 1.934zm10.56-3.822c-14.274-9.817-19.636-26.472-21.027-31.774 4.878-1.496 10.538-2.93 10.612-2.949.166-.042.326-.104.475-.187l5.071-2.794 1.958 3.555c.381.692 1.133 1.098 1.922 1.028 3.153-.27 8.134.017 9.286 1.257 4.037 4.346 2.795 13.771 2.318 16.557-.496 2.892-1.867 5.877-3.276 8.673-1.254 2.489-3.77 4.739-7.339 6.634zm-64.811 130.68 21.768-18.928c.151-.131.281-.285.387-.455l17.963-28.94 12.959-17.943c.119-.165.211-.346.276-.539l12.927-38.781 6.601-10.727 11.048 10.259-10.752 25.175c-.998 2.336-2.177 4.62-3.505 6.787l-16.838 27.472-24.894 28.877c-.034.039-.065.078-.096.119l-12.144 16.481c-.668.907-1.491 1.685-2.426 2.301l.916-1.604c.427-.746.329-1.682-.244-2.323s-1.491-.845-2.28-.507l-10.815 4.635c-.309.135-.569.04-.698-.028-.128-.067-.352-.229-.418-.56-.056-.285.045-.581.265-.771zm-51.018 40.376.964-1.447 14.652-11.722 36.384-21.808c.491-.047.979-.165 1.445-.365l6.044-2.59c.005.825.31 1.639.899 2.299.688.771 1.624 1.181 2.593 1.181.468 0 .944-.096 1.402-.292 2.208-.947 4.128-2.469 5.554-4.403l5.987-8.125 3.978-1.768 12.745 13.372-25.904 10.991-49.947 17.981c-.522.188-.942.584-1.161 1.094l-2.404 5.611c-.104.24-.319.41-.576.453l-4.282.713c-.042.007-.085.011-.127.011h-7.609c-.397 0-.592-.252-.672-.403s-.185-.452.035-.783z"/></svg>